<svg width="662" height="388" viewBox="0 0 662 388" fill="none" xmlns="http://www.w3.org/2000/svg">
<mask id="path-1-inside-1" fill="white">
<path fill-rule="evenodd" clip-rule="evenodd" d="M348.679 272.085C348.679 272.54 348.704 272.988 348.753 273.43C344.834 274.691 342 278.356 342 282.682C342 287.904 346.131 292.164 351.315 292.393V292.402H379.083V292.402C379.112 292.402 379.141 292.402 379.17 292.402C384.072 292.402 388.046 288.442 388.046 283.557C388.046 279.446 385.231 275.99 381.417 274.998C381.613 274.354 381.718 273.67 381.718 272.961C381.718 269.092 378.571 265.955 374.689 265.955C373.595 265.955 372.561 266.204 371.638 266.647C369.641 262.704 365.54 260 360.805 260C354.108 260 348.679 265.411 348.679 272.085Z"/>
</mask>
<path fill-rule="evenodd" clip-rule="evenodd" d="M348.679 272.085C348.679 272.54 348.704 272.988 348.753 273.43C344.834 274.691 342 278.356 342 282.682C342 287.904 346.131 292.164 351.315 292.393V292.402H379.083V292.402C379.112 292.402 379.141 292.402 379.17 292.402C384.072 292.402 388.046 288.442 388.046 283.557C388.046 279.446 385.231 275.99 381.417 274.998C381.613 274.354 381.718 273.67 381.718 272.961C381.718 269.092 378.571 265.955 374.689 265.955C373.595 265.955 372.561 266.204 371.638 266.647C369.641 262.704 365.54 260 360.805 260C354.108 260 348.679 265.411 348.679 272.085Z" fill="white"/>
<path d="M348.753 273.43L349.347 273.364L349.401 273.849L348.936 273.999L348.753 273.43ZM351.315 292.393L351.341 291.795L351.913 291.821V292.393H351.315ZM351.315 292.402V293H350.717V292.402H351.315ZM379.083 292.402H379.681V293H379.083V292.402ZM379.083 292.402H378.485V291.798L379.088 291.804L379.083 292.402ZM381.417 274.998L381.266 275.577L380.663 275.42L380.845 274.824L381.417 274.998ZM371.638 266.647L371.897 267.186L371.369 267.44L371.104 266.918L371.638 266.647ZM348.158 273.496C348.107 273.032 348.081 272.562 348.081 272.085H349.277C349.277 272.518 349.301 272.944 349.347 273.364L348.158 273.496ZM341.402 282.682C341.402 278.088 344.412 274.199 348.57 272.86L348.936 273.999C345.256 275.183 342.598 278.625 342.598 282.682H341.402ZM351.288 292.99C345.788 292.747 341.402 288.227 341.402 282.682H342.598C342.598 287.58 346.474 291.581 351.341 291.795L351.288 292.99ZM351.913 292.393V292.402H350.717V292.393H351.913ZM351.315 291.804H379.083V293H351.315V291.804ZM378.485 292.402V292.402H379.681V292.402H378.485ZM379.17 293C379.139 293 379.108 293 379.077 293L379.088 291.804C379.116 291.804 379.143 291.804 379.17 291.804V293ZM388.644 283.557C388.644 288.775 384.4 293 379.17 293V291.804C383.744 291.804 387.448 288.11 387.448 283.557H388.644ZM381.567 274.419C385.637 275.477 388.644 279.166 388.644 283.557H387.448C387.448 279.726 384.824 276.502 381.266 275.577L381.567 274.419ZM382.316 272.961C382.316 273.729 382.202 274.472 381.989 275.172L380.845 274.824C381.024 274.235 381.12 273.61 381.12 272.961H382.316ZM374.689 265.357C378.899 265.357 382.316 268.76 382.316 272.961H381.12C381.12 269.424 378.243 266.553 374.689 266.553V265.357ZM371.379 266.108C372.381 265.627 373.504 265.357 374.689 265.357V266.553C373.687 266.553 372.74 266.781 371.897 267.186L371.379 266.108ZM360.805 259.402C365.773 259.402 370.076 262.24 372.171 266.377L371.104 266.918C369.206 263.168 365.307 260.598 360.805 260.598V259.402ZM348.081 272.085C348.081 265.079 353.78 259.402 360.805 259.402V260.598C354.436 260.598 349.277 265.743 349.277 272.085H348.081Z" fill="#E5E5E5" mask="url(#path-1-inside-1)"/>
<ellipse cx="331" cy="360" rx="331" ry="28" fill="#F4F4F4"/>
<rect x="37.5647" y="18.5636" width="586.873" height="325.145" rx="19.6907" fill="#EFF4FF" stroke="#BABDC4" stroke-width="13.1271"/>
<rect x="631" y="340.447" width="24.569" height="600" rx="12.2845" transform="rotate(90 631 340.447)" fill="#BABDC4"/>
<g filter="url(#filter0_d)">
<rect x="43.9331" y="23.6407" width="574.451" height="314.224" rx="15.5172" fill="white"/>
<rect x="44.2584" y="23.966" width="573.801" height="313.574" rx="15.192" stroke="#C7C7C7" stroke-width="0.650567"/>
</g>
<g clip-path="url(#clip0)">
<g filter="url(#filter1_d)">
<rect x="41.002" y="21.6445" width="580" height="316" rx="12" fill="white"/>
</g>
<rect x="70.9043" y="63.9453" width="60.3923" height="27.3043" rx="4" fill="#676E80"/>
<path d="M83.3164 83.6836H84.8143V75.174L88.6164 83.6836H89.6698L93.4555 75.1904V83.6836H94.9534V72.2936H93.3568L89.1431 81.7084L84.9295 72.2936H83.3164V83.6836ZM108.456 77.9392C108.456 74.4991 105.937 72.0796 102.695 72.0796C99.4687 72.0796 96.9339 74.4991 96.9339 77.9392C96.9339 81.3793 99.4687 83.7988 102.695 83.7988C105.937 83.7988 108.456 81.3793 108.456 77.9392ZM98.4647 77.9392C98.4647 75.1246 100.275 73.3799 102.695 73.3799C105.114 73.3799 106.925 75.1246 106.925 77.9392C106.925 80.7373 105.114 82.4985 102.695 82.4985C100.275 82.4985 98.4647 80.7373 98.4647 77.9392ZM117.955 72.1948V81.3134L111.931 72.1948H110.433V83.6836H111.931V74.5485L117.955 83.6836H119.453V72.1948H117.955Z" fill="white"/>
<rect x="70.9043" y="101.652" width="60.3923" height="27.3043" rx="4" fill="#676E80"/>
<path d="M87.7282 111.137H90.872V121.391H92.3698V111.137H95.4971V109.919H87.7282V111.137ZM97.3079 117.161C97.3079 120.14 99.2502 121.507 101.62 121.507C103.991 121.507 105.949 120.14 105.949 117.161V109.919H104.451V117.178C104.451 119.285 103.332 120.19 101.637 120.19C99.9415 120.19 98.8058 119.285 98.8058 117.178V109.919H97.3079V117.161ZM114.62 109.903H108.448V121.391H114.62V120.157H109.946V116.207H114.126V114.972H109.946V111.137H114.62V109.903Z" fill="white"/>
<rect x="70.9043" y="139.359" width="60.3923" height="27.3043" rx="4" fill="#676E80"/>
<path d="M86.9151 159.114L88.5775 159.098L91.3427 149.864L94.0092 159.098H95.6881L99.0129 147.625H97.3999L94.8816 157.32L92.248 147.625H90.5691L87.8039 157.353L85.3021 147.625H83.7055L86.9151 159.114ZM106.824 147.609H100.652V159.098H106.824V157.863H102.15V153.913H106.331V152.678H102.15V148.843H106.824V147.609ZM112.663 147.625H109.091V159.098H112.663C116.432 159.098 118.753 156.941 118.753 153.386C118.753 149.831 116.432 147.625 112.663 147.625ZM110.589 157.863V148.843H112.663C115.658 148.843 117.222 150.588 117.222 153.386C117.222 156.184 115.658 157.863 112.663 157.863H110.589Z" fill="white"/>
<rect x="70.9043" y="177.066" width="60.3923" height="27.3043" rx="4" fill="#676E80"/>
<path d="M86.2574 186.546H89.4012V196.8H90.899V186.546H94.0264V185.328H86.2574V186.546ZM103.211 196.8H104.709V185.328H103.211V190.364H97.3679V185.328H95.8701V196.8H97.3679V191.599H103.211V196.8ZM107.217 192.57C107.217 195.549 109.16 196.915 111.53 196.915C113.9 196.915 115.859 195.549 115.859 192.57V185.328H114.361V192.587C114.361 194.693 113.242 195.599 111.546 195.599C109.851 195.599 108.715 194.693 108.715 192.587V185.328H107.217V192.57Z" fill="white"/>
<rect x="70.9043" y="214.766" width="60.3923" height="27.3043" rx="4" fill="#676E80"/>
<path d="M91.4819 234.504H92.9798V229.335H97.0288V228.117H92.9798V224.249H97.967V223.031H91.4819V234.504ZM105.915 226.406C105.915 227.69 105.175 228.611 103.479 228.611H101.274V224.266H103.479C105.191 224.266 105.915 225.105 105.915 226.406ZM99.776 223.031V234.504H101.274V229.813H103.084L105.817 234.504H107.611L104.73 229.698C106.656 229.27 107.463 227.871 107.463 226.406C107.463 224.529 106.179 223.031 103.479 223.031H99.776ZM109.79 234.504H111.288V223.031H109.79V234.504Z" fill="white"/>
<rect x="70.9043" y="252.473" width="60.3923" height="27.3043" rx="4" fill="#676E80"/>
<path d="M95.2894 269.084C95.2894 264.837 89.1006 266.681 89.1006 263.718C89.1006 262.484 90.0717 261.842 91.3062 261.875C92.7052 261.891 93.4294 262.763 93.5282 263.537H95.1742C94.9931 261.792 93.5611 260.591 91.372 260.591C89.1006 260.591 87.5698 261.875 87.5698 263.768C87.5698 268.031 93.7751 266.055 93.7751 269.15C93.7751 270.236 92.9192 271.059 91.4708 271.059C89.8742 271.059 89.1993 270.104 89.1006 269.15H87.504C87.5369 271.043 89.1664 272.327 91.4708 272.327C93.9562 272.327 95.2894 270.713 95.2894 269.084ZM105.197 272.211H106.777L102.645 260.805H100.917L96.7693 272.211H98.3494L99.2712 269.66H104.275L105.197 272.211ZM103.847 268.442H99.6991L101.773 262.648L103.847 268.442ZM107.877 261.957H111.021V272.211H112.518V261.957H115.646V260.739H107.877V261.957Z" fill="white"/>
<rect x="70.9043" y="290.184" width="60.3923" height="27.3043" rx="4" fill="#676E80"/>
<path d="M93.9472 306.799C93.9472 302.553 87.7584 304.396 87.7584 301.433C87.7584 300.199 88.7295 299.557 89.964 299.59C91.3631 299.606 92.0873 300.479 92.186 301.252H93.832C93.6509 299.508 92.219 298.306 90.0298 298.306C87.7584 298.306 86.2277 299.59 86.2277 301.483C86.2277 305.746 92.4329 303.771 92.4329 306.865C92.4329 307.951 91.577 308.774 90.1286 308.774C88.532 308.774 87.8572 307.82 87.7584 306.865H86.1618C86.1947 308.758 87.8242 310.042 90.1286 310.042C92.614 310.042 93.9472 308.429 93.9472 306.799ZM96.1185 305.696C96.1185 308.676 98.0607 310.042 100.431 310.042C102.801 310.042 104.76 308.676 104.76 305.696V298.454H103.262V305.713C103.262 307.82 102.143 308.725 100.447 308.725C98.752 308.725 97.6163 307.82 97.6163 305.713V298.454H96.1185V305.696ZM114.78 298.438V307.556L108.756 298.438H107.258V309.927H108.756V300.791L114.78 309.927H116.278V298.438H114.78Z" fill="white"/>
<rect x="143.678" y="63.9453" width="16.73" height="27.3043" rx="4" fill="#FBAFAF"/>
<rect x="162.414" y="63.9453" width="16.73" height="27.3043" rx="4" fill="#FBAFAF"/>
<rect x="181.15" y="63.9453" width="16.73" height="27.3043" rx="4" fill="#FBAFAF"/>
<rect x="199.889" y="63.9453" width="16.73" height="27.3043" rx="4" fill="#FBAFAF"/>
<rect x="218.625" y="63.9453" width="16.73" height="27.3043" rx="4" fill="#FBAFAF"/>
<rect x="237.361" y="63.9453" width="16.73" height="27.3043" rx="4" fill="#FBAFAF"/>
<rect x="256.096" y="63.9453" width="16.73" height="27.3043" rx="4" fill="#FBAFAF"/>
<rect x="274.838" y="63.9453" width="16.73" height="27.3043" rx="4" fill="#FBAFAF"/>
<rect x="293.574" y="63.9453" width="16.73" height="27.3043" rx="4" fill="#FBAFAF"/>
<rect x="312.311" y="63.9453" width="16.73" height="27.3043" rx="4" fill="#FBAFAF"/>
<rect x="331.047" y="63.9453" width="16.73" height="27.3043" rx="4" fill="#FBAFAF"/>
<rect x="349.787" y="63.9453" width="16.73" height="27.3043" rx="4" fill="#FBAFAF"/>
<rect x="368.523" y="63.9453" width="16.73" height="27.3043" rx="4" fill="#FBAFAF"/>
<rect x="387.26" y="63.9453" width="16.73" height="27.3043" rx="4" fill="#00C97A"/>
<rect x="405.994" y="63.9453" width="16.73" height="27.3043" rx="4" fill="#00C97A"/>
<rect x="424.73" y="63.9453" width="16.73" height="27.3043" rx="4" fill="#00C97A"/>
<rect x="443.471" y="63.9453" width="16.73" height="27.3043" rx="4" fill="#00C97A"/>
<rect x="462.207" y="63.9453" width="16.73" height="27.3043" rx="4" fill="#00C97A"/>
<rect x="480.945" y="63.9453" width="16.73" height="27.3043" rx="4" fill="#00C97A"/>
<rect x="499.682" y="63.9453" width="16.73" height="27.3043" rx="4" fill="#00C97A"/>
<rect x="518.418" y="63.9453" width="16.73" height="27.3043" rx="4" fill="#00C97A"/>
<rect x="537.156" y="63.9453" width="16.73" height="27.3043" rx="4" fill="#00C97A"/>
<rect x="555.893" y="63.9453" width="16.73" height="27.3043" rx="4" fill="#00C97A"/>
<rect x="574.629" y="63.9453" width="16.73" height="27.3043" rx="4" fill="#00C97A"/>
<rect x="143.678" y="101.656" width="16.73" height="27.3043" rx="4" fill="#FBAFAF"/>
<rect x="162.414" y="101.656" width="16.73" height="27.3043" rx="4" fill="#FBAFAF"/>
<rect x="181.15" y="101.656" width="16.73" height="27.3043" rx="4" fill="#FBAFAF"/>
<rect x="199.887" y="101.656" width="16.73" height="27.3043" rx="4" fill="#FBAFAF"/>
<rect x="218.627" y="101.656" width="16.73" height="27.3043" rx="4" fill="#FBAFAF"/>
<rect x="237.363" y="101.656" width="16.73" height="27.3043" rx="4" fill="#FBAFAF"/>
<rect x="256.098" y="101.656" width="16.73" height="27.3043" rx="4" fill="#FBAFAF"/>
<rect x="274.838" y="101.656" width="16.73" height="27.3043" rx="4" fill="#FBAFAF"/>
<rect x="293.574" y="101.656" width="16.73" height="27.3043" rx="4" fill="#FBAFAF"/>
<rect x="312.311" y="101.656" width="16.73" height="27.3043" rx="4" fill="#FBAFAF"/>
<rect x="331.047" y="101.656" width="16.73" height="27.3043" rx="4" fill="#FBAFAF"/>
<rect x="349.785" y="101.656" width="16.73" height="27.3043" rx="4" fill="#FBAFAF"/>
<rect x="368.521" y="101.656" width="16.73" height="27.3043" rx="4" fill="#FBAFAF"/>
<rect x="387.258" y="101.656" width="16.73" height="27.3043" rx="4" fill="#FBAFAF"/>
<rect x="405.996" y="101.656" width="16.73" height="27.3043" rx="4" fill="#FBAFAF"/>
<rect x="424.732" y="101.656" width="16.73" height="27.3043" rx="4" fill="#FBAFAF"/>
<rect x="443.215" y="101.656" width="16.73" height="27.3043" rx="4" fill="#FBAFAF"/>
<rect x="462.207" y="101.656" width="16.73" height="27.3043" rx="4" fill="#00C97A"/>
<rect x="480.945" y="101.656" width="16.73" height="27.3043" rx="4" fill="#00C97A"/>
<rect x="499.682" y="101.656" width="16.73" height="27.3043" rx="4" fill="#00C97A"/>
<rect x="518.418" y="101.656" width="16.73" height="27.3043" rx="4" fill="#00C97A"/>
<rect x="537.154" y="101.656" width="16.73" height="27.3043" rx="4" fill="#00C97A"/>
<rect x="555.891" y="101.656" width="16.73" height="27.3043" rx="4" fill="#00C97A"/>
<rect x="574.631" y="101.656" width="16.73" height="27.3043" rx="4" fill="#00C97A"/>
<rect x="143.68" y="139.355" width="16.73" height="27.3043" rx="4" fill="#FBAFAF"/>
<rect x="162.416" y="139.355" width="16.73" height="27.3043" rx="4" fill="#FBAFAF"/>
<rect x="181.152" y="139.355" width="16.73" height="27.3043" rx="4" fill="#FBAFAF"/>
<rect x="199.891" y="139.355" width="16.73" height="27.3043" rx="4" fill="#FBAFAF"/>
<rect x="218.627" y="139.355" width="16.73" height="27.3043" rx="4" fill="#FBAFAF"/>
<rect x="237.363" y="139.355" width="16.73" height="27.3043" rx="4" fill="#FBAFAF"/>
<rect x="256.098" y="139.355" width="16.73" height="27.3043" rx="4" fill="#FBAFAF"/>
<rect x="274.838" y="139.355" width="16.73" height="27.3043" rx="4" fill="#FBAFAF"/>
<rect x="293.576" y="139.355" width="16.73" height="27.3043" rx="4" fill="#FBAFAF"/>
<rect x="312.312" y="139.355" width="16.73" height="27.3043" rx="4" fill="#FBAFAF"/>
<rect x="331.049" y="139.355" width="16.73" height="27.3043" rx="4" fill="#FBAFAF"/>
<rect x="349.787" y="139.355" width="16.73" height="27.3043" rx="4" fill="#FBAFAF"/>
<rect x="368.525" y="139.355" width="16.73" height="27.3043" rx="4" fill="#FBAFAF"/>
<rect x="387.262" y="139.355" width="16.73" height="27.3043" rx="4" fill="#FBAFAF"/>
<rect x="405.996" y="139.355" width="16.73" height="27.3043" rx="4" fill="#FBAFAF"/>
<rect x="424.732" y="139.355" width="16.73" height="27.3043" rx="4" fill="#00C97A"/>
<rect x="443.217" y="139.355" width="16.73" height="27.3043" rx="4" fill="#00C97A"/>
<rect x="462.209" y="139.355" width="16.73" height="27.3043" rx="4" fill="#00C97A"/>
<rect x="480.947" y="139.355" width="16.73" height="27.3043" rx="4" fill="#00C97A"/>
<rect x="499.684" y="139.355" width="16.73" height="27.3043" rx="4" fill="#00C97A"/>
<rect x="518.42" y="139.355" width="16.73" height="27.3043" rx="4" fill="#00C97A"/>
<rect x="537.158" y="139.355" width="16.73" height="27.3043" rx="4" fill="#00C97A"/>
<rect x="555.895" y="139.355" width="16.73" height="27.3043" rx="4" fill="#00C97A"/>
<rect x="574.631" y="139.355" width="16.73" height="27.3043" rx="4" fill="#00C97A"/>
<rect x="143.678" y="177.071" width="16.73" height="27.3043" rx="4" fill="#FBAFAF"/>
<rect x="162.414" y="177.071" width="16.73" height="27.3043" rx="4" fill="#FBAFAF"/>
<rect x="181.15" y="177.071" width="16.73" height="27.3043" rx="4" fill="#FBAFAF"/>
<rect x="199.887" y="177.071" width="16.73" height="27.3043" rx="4" fill="#FBAFAF"/>
<rect x="218.627" y="177.071" width="16.73" height="27.3043" rx="4" fill="#FBAFAF"/>
<rect x="237.363" y="177.071" width="16.73" height="27.3043" rx="4" fill="#FBAFAF"/>
<rect x="256.098" y="177.071" width="16.73" height="27.3043" rx="4" fill="#FBAFAF"/>
<rect x="274.838" y="177.071" width="16.73" height="27.3043" rx="4" fill="#FBAFAF"/>
<rect x="293.574" y="177.071" width="16.73" height="27.3043" rx="4" fill="#FBAFAF"/>
<rect x="312.311" y="177.071" width="16.73" height="27.3043" rx="4" fill="#FBAFAF"/>
<rect x="331.047" y="177.071" width="16.73" height="27.3043" rx="4" fill="#FBAFAF"/>
<rect x="349.785" y="177.071" width="16.73" height="27.3043" rx="4" fill="#FBAFAF"/>
<rect x="368.521" y="177.071" width="16.73" height="27.3043" rx="4" fill="#FBAFAF"/>
<rect x="387.258" y="177.071" width="16.73" height="27.3043" rx="4" fill="#FBAFAF"/>
<rect x="405.996" y="177.071" width="16.73" height="27.3043" rx="4" fill="#FBAFAF"/>
<rect x="424.732" y="177.071" width="16.73" height="27.3043" rx="4" fill="#FBAFAF"/>
<rect x="443.471" y="177.071" width="16.73" height="27.3043" rx="4" fill="#00C97A"/>
<rect x="462.207" y="177.071" width="16.73" height="27.3043" rx="4" fill="#00C97A"/>
<rect x="480.945" y="177.071" width="16.73" height="27.3043" rx="4" fill="#00C97A"/>
<rect x="499.682" y="177.071" width="16.73" height="27.3043" rx="4" fill="#00C97A"/>
<rect x="518.418" y="177.071" width="16.73" height="27.3043" rx="4" fill="#00C97A"/>
<rect x="537.154" y="177.071" width="16.73" height="27.3043" rx="4" fill="#00C97A"/>
<rect x="555.891" y="177.071" width="16.73" height="27.3043" rx="4" fill="#00C97A"/>
<rect x="574.631" y="177.071" width="16.73" height="27.3043" rx="4" fill="#00C97A"/>
<rect x="143.676" y="214.766" width="16.73" height="27.3043" rx="4" fill="#FBAFAF"/>
<rect x="162.412" y="214.766" width="16.73" height="27.3043" rx="4" fill="#FBAFAF"/>
<rect x="181.148" y="214.766" width="16.73" height="27.3043" rx="4" fill="#FBAFAF"/>
<rect x="199.887" y="214.766" width="16.73" height="27.3043" rx="4" fill="#FBAFAF"/>
<rect x="218.625" y="214.766" width="16.73" height="27.3043" rx="4" fill="#FBAFAF"/>
<rect x="237.361" y="214.766" width="16.73" height="27.3043" rx="4" fill="#FBAFAF"/>
<rect x="256.096" y="214.766" width="16.73" height="27.3043" rx="4" fill="#FBAFAF"/>
<rect x="274.838" y="214.766" width="16.73" height="27.3043" rx="4" fill="#FBAFAF"/>
<rect x="293.574" y="214.766" width="16.73" height="27.3043" rx="4" fill="#FBAFAF"/>
<rect x="312.312" y="214.766" width="16.73" height="27.3043" rx="4" fill="#FBAFAF"/>
<rect x="331.051" y="214.766" width="16.73" height="27.3043" rx="4" fill="#FBAFAF"/>
<rect x="349.783" y="214.766" width="16.73" height="27.3043" rx="4" fill="#FBAFAF"/>
<rect x="368.521" y="214.766" width="16.73" height="27.3043" rx="4" fill="#FBAFAF"/>
<rect x="387.258" y="214.766" width="16.73" height="27.3043" rx="4" fill="#FBAFAF"/>
<rect x="405.994" y="214.766" width="16.73" height="27.3043" rx="4" fill="#FBAFAF"/>
<rect x="424.73" y="214.766" width="16.73" height="27.3043" rx="4" fill="#FBAFAF"/>
<rect x="443.471" y="214.766" width="16.73" height="27.3043" rx="4" fill="#FBAFAF"/>
<rect x="462.207" y="214.766" width="16.73" height="27.3043" rx="4" fill="#00C97A"/>
<rect x="480.945" y="214.766" width="16.73" height="27.3043" rx="4" fill="#00C97A"/>
<rect x="499.682" y="214.766" width="16.73" height="27.3043" rx="4" fill="#00C97A"/>
<rect x="518.422" y="214.766" width="16.73" height="27.3043" rx="4" fill="#00C97A"/>
<rect x="537.158" y="214.766" width="16.73" height="27.3043" rx="4" fill="#00C97A"/>
<rect x="555.893" y="214.766" width="16.73" height="27.3043" rx="4" fill="#00C97A"/>
<rect x="574.627" y="214.766" width="16.73" height="27.3043" rx="4" fill="#00C97A"/>
<rect x="143.676" y="252.473" width="16.73" height="27.3043" rx="4" fill="#FBAFAF"/>
<rect x="162.412" y="252.473" width="16.73" height="27.3043" rx="4" fill="#FBAFAF"/>
<rect x="181.148" y="252.473" width="16.73" height="27.3043" rx="4" fill="#FBAFAF"/>
<rect x="199.885" y="252.473" width="16.73" height="27.3043" rx="4" fill="#FBAFAF"/>
<rect x="218.627" y="252.473" width="16.73" height="27.3043" rx="4" fill="#FBAFAF"/>
<rect x="237.363" y="252.473" width="16.73" height="27.3043" rx="4" fill="#FBAFAF"/>
<rect x="256.098" y="252.473" width="16.73" height="27.3043" rx="4" fill="#FBAFAF"/>
<rect x="274.838" y="252.473" width="16.73" height="27.3043" rx="4" fill="#FBAFAF"/>
<rect x="293.574" y="252.473" width="16.73" height="27.3043" rx="4" fill="#FBAFAF"/>
<rect x="312.312" y="252.473" width="16.73" height="27.3043" rx="4" fill="#FBAFAF"/>
<rect x="331.049" y="252.473" width="16.73" height="27.3043" rx="4" fill="#FBAFAF"/>
<rect x="349.783" y="252.473" width="16.73" height="27.3043" rx="4" fill="#FBAFAF"/>
<rect x="368.52" y="252.473" width="16.73" height="27.3043" rx="4" fill="#FBAFAF"/>
<rect x="387.256" y="252.473" width="16.73" height="27.3043" rx="4" fill="#FBAFAF"/>
<rect x="405.992" y="252.473" width="16.73" height="27.3043" rx="4" fill="#FBAFAF"/>
<rect x="424.732" y="252.473" width="16.73" height="27.3043" rx="4" fill="#FBAFAF"/>
<rect x="443.471" y="252.473" width="16.73" height="27.3043" rx="4" fill="#FBAFAF"/>
<rect x="462.207" y="252.473" width="16.73" height="27.3043" rx="4" fill="#FBAFAF"/>
<rect x="480.945" y="252.473" width="16.73" height="27.3043" rx="4" fill="#FBAFAF"/>
<rect x="499.682" y="252.473" width="16.73" height="27.3043" rx="4" fill="#FBAFAF"/>
<rect x="518.42" y="252.473" width="16.73" height="27.3043" rx="4" fill="#FBAFAF"/>
<rect x="537.156" y="252.473" width="16.73" height="27.3043" rx="4" fill="#FBAFAF"/>
<rect x="555.895" y="252.473" width="16.73" height="27.3043" rx="4" fill="#FBAFAF"/>
<rect x="574.629" y="252.473" width="16.73" height="27.3043" rx="4" fill="#FBAFAF"/>
<rect x="143.676" y="290.18" width="16.73" height="27.3043" rx="4" fill="#FBAFAF"/>
<rect x="162.412" y="290.18" width="16.73" height="27.3043" rx="4" fill="#FBAFAF"/>
<rect x="181.363" y="290.18" width="16.73" height="27.3043" rx="4" fill="#FBAFAF"/>
<rect x="199.887" y="290.18" width="16.73" height="27.3043" rx="4" fill="#FBAFAF"/>
<rect x="218.625" y="290.18" width="16.73" height="27.3043" rx="4" fill="#FBAFAF"/>
<rect x="237.361" y="290.18" width="16.73" height="27.3043" rx="4" fill="#FBAFAF"/>
<rect x="256.096" y="290.18" width="16.73" height="27.3043" rx="4" fill="#FBAFAF"/>
<rect x="274.838" y="290.18" width="16.73" height="27.3043" rx="4" fill="#FBAFAF"/>
<rect x="293.574" y="290.18" width="16.73" height="27.3043" rx="4" fill="#FBAFAF"/>
<rect x="312.312" y="290.18" width="16.73" height="27.3043" rx="4" fill="#FBAFAF"/>
<rect x="331.051" y="290.18" width="16.73" height="27.3043" rx="4" fill="#FBAFAF"/>
<rect x="349.783" y="290.18" width="16.73" height="27.3043" rx="4" fill="#FBAFAF"/>
<rect x="368.521" y="290.18" width="16.73" height="27.3043" rx="4" fill="#FBAFAF"/>
<rect x="387.258" y="290.18" width="16.73" height="27.3043" rx="4" fill="#FBAFAF"/>
<rect x="405.994" y="290.18" width="16.73" height="27.3043" rx="4" fill="#FBAFAF"/>
<rect x="424.73" y="290.18" width="16.73" height="27.3043" rx="4" fill="#FBAFAF"/>
<rect x="443.471" y="290.18" width="16.73" height="27.3043" rx="4" fill="#FBAFAF"/>
<rect x="462.207" y="290.18" width="16.73" height="27.3043" rx="4" fill="#FBAFAF"/>
<rect x="480.945" y="290.18" width="16.73" height="27.3043" rx="4" fill="#FBAFAF"/>
<rect x="499.682" y="290.18" width="16.73" height="27.3043" rx="4" fill="#FBAFAF"/>
<rect x="518.422" y="290.18" width="16.73" height="27.3043" rx="4" fill="#FBAFAF"/>
<rect x="537.158" y="290.18" width="16.73" height="27.3043" rx="4" fill="#FBAFAF"/>
<rect x="555.893" y="290.18" width="16.73" height="27.3043" rx="4" fill="#FBAFAF"/>
<rect x="574.627" y="290.18" width="16.73" height="27.3043" rx="4" fill="#FBAFAF"/>
<path d="M91.6234 49.7428H93.0461V38.8457H91.6234V43.6298H86.0732V38.8457H84.6504V49.7428H86.0732V44.8023H91.6234V49.7428ZM103.59 45.4434C103.59 42.7386 101.698 41.0345 99.2593 41.0345C96.836 41.0345 94.9286 42.7386 94.9286 45.4434C94.9286 48.1637 96.7734 49.8835 99.1967 49.8835C101.636 49.8835 103.59 48.1637 103.59 45.4434ZM96.3826 45.4434C96.3826 43.2858 97.7427 42.2696 99.2436 42.2696C100.713 42.2696 102.136 43.2858 102.136 45.4434C102.136 47.6165 100.682 48.6328 99.1967 48.6328C97.7115 48.6328 96.3826 47.6165 96.3826 45.4434ZM113.059 41.1752H111.636V45.8811C111.636 47.726 110.651 48.6328 109.182 48.6328C107.743 48.6328 106.79 47.7416 106.79 46.0062V41.1752H105.382V46.1938C105.382 48.6484 106.93 49.8679 108.9 49.8679C110.041 49.8679 111.089 49.3676 111.636 48.4764V49.7428H113.059V41.1752ZM116.884 45.0838C116.884 43.0982 117.916 42.4885 119.276 42.4885H119.651V41.0188C118.291 41.0188 117.368 41.6129 116.884 42.5666V41.1752H115.461V49.7428H116.884V45.0838Z" fill="#676E80"/>
<path d="M145.9 44.796C145.9 46.9848 146.442 48.6421 148.527 48.6421C150.601 48.6421 151.143 46.9848 151.143 44.796C151.143 42.6385 150.601 40.9917 148.527 40.9917C146.442 40.9917 145.9 42.6385 145.9 44.796ZM150.205 44.796C150.205 46.422 150.007 47.777 148.527 47.777C147.036 47.777 146.838 46.422 146.838 44.796C146.838 43.2326 147.036 41.8568 148.527 41.8568C150.007 41.8568 150.205 43.2326 150.205 44.796ZM152.445 44.796C152.445 46.9848 152.987 48.6421 155.072 48.6421C157.146 48.6421 157.688 46.9848 157.688 44.796C157.688 42.6385 157.146 40.9917 155.072 40.9917C152.987 40.9917 152.445 42.6385 152.445 44.796ZM156.75 44.796C156.75 46.422 156.552 47.777 155.072 47.777C153.581 47.777 153.383 46.422 153.383 44.796C153.383 43.2326 153.581 41.8568 155.072 41.8568C156.552 41.8568 156.75 43.2326 156.75 44.796Z" fill="#676E80"/>
<path d="M166.672 44.796C166.672 46.9848 167.214 48.6421 169.299 48.6421C171.373 48.6421 171.915 46.9848 171.915 44.796C171.915 42.6385 171.373 40.9917 169.299 40.9917C167.214 40.9917 166.672 42.6385 166.672 44.796ZM170.977 44.796C170.977 46.422 170.779 47.777 169.299 47.777C167.808 47.777 167.61 46.422 167.61 44.796C167.61 43.2326 167.808 41.8568 169.299 41.8568C170.779 41.8568 170.977 43.2326 170.977 44.796ZM173.967 48.6421H174.926V41.1063H172.967V41.9714H173.967V48.6421Z" fill="#676E80"/>
<path d="M184.188 44.796C184.188 46.9848 184.73 48.6421 186.815 48.6421C188.889 48.6421 189.431 46.9848 189.431 44.796C189.431 42.6385 188.889 40.9917 186.815 40.9917C184.73 40.9917 184.188 42.6385 184.188 44.796ZM188.493 44.796C188.493 46.422 188.295 47.777 186.815 47.777C185.324 47.777 185.126 46.422 185.126 44.796C185.126 43.2326 185.324 41.8568 186.815 41.8568C188.295 41.8568 188.493 43.2326 188.493 44.796ZM190.618 48.5587H195.632V47.7666H192.046C193.391 46.6722 195.413 45.0775 195.413 43.2013C195.413 41.8047 194.496 40.9708 193.078 40.9708C191.723 40.9708 190.712 41.8047 190.65 43.4098H191.567C191.609 42.4613 192.109 41.7838 193.089 41.7838C194.11 41.7838 194.475 42.4092 194.475 43.243C194.475 44.7856 192.599 46.2865 190.618 47.8812V48.5587Z" fill="#676E80"/>
<path d="M202.308 44.796C202.308 46.9848 202.85 48.6421 204.935 48.6421C207.009 48.6421 207.551 46.9848 207.551 44.796C207.551 42.6385 207.009 40.9917 204.935 40.9917C202.85 40.9917 202.308 42.6385 202.308 44.796ZM206.613 44.796C206.613 46.422 206.415 47.777 204.935 47.777C203.444 47.777 203.246 46.422 203.246 44.796C203.246 43.2326 203.444 41.8568 204.935 41.8568C206.415 41.8568 206.613 43.2326 206.613 44.796ZM208.832 43.0033H209.76C209.854 42.2737 210.385 41.7734 211.271 41.7734C212.178 41.7734 212.658 42.2737 212.658 42.9929C212.658 43.8684 211.98 44.254 210.719 44.2645H210.469V45.0566H210.709C212.063 45.0566 212.804 45.4631 212.804 46.5262C212.804 47.2975 212.324 47.8916 211.313 47.8916C210.312 47.8916 209.729 47.2767 209.635 46.4741H208.718C208.832 47.9333 209.896 48.6942 211.323 48.6942C212.897 48.6942 213.71 47.777 213.71 46.6096C213.71 45.5256 213.116 44.8794 212.241 44.671V44.6188C213.033 44.4417 213.575 43.7642 213.575 42.8991C213.575 41.8151 212.772 40.9604 211.303 40.9604C209.906 40.9604 208.926 41.7109 208.832 43.0033Z" fill="#676E80"/>
<path d="M220.62 44.796C220.62 46.9848 221.162 48.6421 223.246 48.6421C225.321 48.6421 225.863 46.9848 225.863 44.796C225.863 42.6385 225.321 40.9917 223.246 40.9917C221.162 40.9917 220.62 42.6385 220.62 44.796ZM224.925 44.796C224.925 46.422 224.727 47.777 223.246 47.777C221.756 47.777 221.558 46.422 221.558 44.796C221.558 43.2326 221.756 41.8568 223.246 41.8568C224.727 41.8568 224.925 43.2326 224.925 44.796ZM230.792 48.6421H231.73V46.964H232.772V46.1406H231.73V41.1793H230.594L226.935 46.2448V46.964H230.792V48.6421ZM228.03 46.1406L230.834 42.1695V46.1406H228.03Z" fill="#676E80"/>
<path d="M238.816 44.796C238.816 46.9848 239.358 48.6421 241.443 48.6421C243.517 48.6421 244.059 46.9848 244.059 44.796C244.059 42.6385 243.517 40.9917 241.443 40.9917C239.358 40.9917 238.816 42.6385 238.816 44.796ZM243.121 44.796C243.121 46.422 242.923 47.777 241.443 47.777C239.953 47.777 239.754 46.422 239.754 44.796C239.754 43.2326 239.953 41.8568 241.443 41.8568C242.923 41.8568 243.121 43.2326 243.121 44.796ZM245.632 41.0959V45.3485H246.529C246.779 44.7543 247.331 44.3583 248.092 44.3583C249.186 44.3583 249.739 44.9837 249.739 46.0572C249.739 47.0891 249.228 47.8604 248.082 47.8604C247.196 47.8604 246.581 47.3913 246.404 46.5992H245.476C245.664 47.8187 246.57 48.6629 248.071 48.6629C249.833 48.6629 250.646 47.4956 250.646 46.0364C250.646 44.869 250.062 43.5453 248.228 43.5453C247.488 43.5453 246.82 43.8788 246.508 44.3062V41.9297H250.166V41.0959H245.632Z" fill="#676E80"/>
<path d="M258.275 44.796C258.275 46.9848 258.817 48.6421 260.901 48.6421C262.976 48.6421 263.518 46.9848 263.518 44.796C263.518 42.6385 262.976 40.9917 260.901 40.9917C258.817 40.9917 258.275 42.6385 258.275 44.796ZM262.58 44.796C262.58 46.422 262.382 47.777 260.901 47.777C259.411 47.777 259.213 46.422 259.213 44.796C259.213 43.2326 259.411 41.8568 260.901 41.8568C262.382 41.8568 262.58 43.2326 262.58 44.796ZM269.896 42.8991C269.771 41.8464 269.041 40.95 267.603 40.95C265.695 40.95 264.934 42.4092 264.934 44.7752C264.934 47.0578 265.466 48.6629 267.696 48.6629C269.343 48.6629 270.156 47.5373 270.156 46.1614C270.156 44.5772 269.208 43.6495 267.801 43.6495C266.904 43.6495 266.081 44.0664 265.758 44.8065C265.747 42.5655 266.394 41.7421 267.592 41.7421C268.447 41.7421 268.874 42.1695 269.02 42.8991H269.896ZM267.603 44.4521C268.687 44.4521 269.239 45.1296 269.239 46.1927C269.239 47.2142 268.624 47.8708 267.644 47.8708C266.456 47.8708 265.872 47.0891 265.872 46.0885C265.872 44.9628 266.738 44.4521 267.603 44.4521Z" fill="#676E80"/>
<path d="M277.58 44.796C277.58 46.9848 278.122 48.6421 280.207 48.6421C282.281 48.6421 282.823 46.9848 282.823 44.796C282.823 42.6385 282.281 40.9917 280.207 40.9917C278.122 40.9917 277.58 42.6385 277.58 44.796ZM281.885 44.796C281.885 46.422 281.687 47.777 280.207 47.777C278.717 47.777 278.519 46.422 278.519 44.796C278.519 43.2326 278.717 41.8568 280.207 41.8568C281.687 41.8568 281.885 43.2326 281.885 44.796ZM283.823 41.1272V41.9402H287.846L284.907 48.6421H285.866L288.764 41.8464V41.1272H283.823Z" fill="#676E80"/>
<path d="M295.981 44.796C295.981 46.9848 296.523 48.6421 298.607 48.6421C300.682 48.6421 301.224 46.9848 301.224 44.796C301.224 42.6385 300.682 40.9917 298.607 40.9917C296.523 40.9917 295.981 42.6385 295.981 44.796ZM300.285 44.796C300.285 46.422 300.087 47.777 298.607 47.777C297.117 47.777 296.919 46.422 296.919 44.796C296.919 43.2326 297.117 41.8568 298.607 41.8568C300.087 41.8568 300.285 43.2326 300.285 44.796ZM303.901 44.7231C303.057 44.9732 302.505 45.6611 302.505 46.6096C302.505 47.975 303.578 48.8505 305.163 48.8505C306.757 48.8505 307.841 47.975 307.841 46.6096C307.841 45.6716 307.289 44.9837 306.434 44.7231C307.174 44.4312 307.643 43.8059 307.643 42.9929C307.643 41.8985 306.799 40.9917 305.163 40.9917C303.526 40.9917 302.692 41.888 302.692 42.9929C302.692 43.8371 303.13 44.4208 303.901 44.7231ZM305.163 44.4104C304.245 44.4104 303.61 43.8997 303.61 43.118C303.61 42.232 304.235 41.7838 305.163 41.7838C306.111 41.7838 306.726 42.2424 306.726 43.1075C306.726 43.8892 306.09 44.4104 305.163 44.4104ZM305.163 45.14C306.153 45.14 306.903 45.609 306.903 46.5784C306.903 47.4539 306.236 48.0584 305.163 48.0584C304.089 48.0584 303.412 47.4643 303.412 46.5784C303.412 45.5778 304.193 45.14 305.163 45.14Z" fill="#676E80"/>
<path d="M314.179 44.796C314.179 46.9848 314.721 48.6421 316.806 48.6421C318.88 48.6421 319.422 46.9848 319.422 44.796C319.422 42.6385 318.88 40.9917 316.806 40.9917C314.721 40.9917 314.179 42.6385 314.179 44.796ZM318.484 44.796C318.484 46.422 318.286 47.777 316.806 47.777C315.315 47.777 315.117 46.422 315.117 44.796C315.117 43.2326 315.315 41.8568 316.806 41.8568C318.286 41.8568 318.484 43.2326 318.484 44.796ZM321.068 46.62C321.172 47.7249 321.902 48.6525 323.403 48.6525C325.383 48.6525 325.956 47.2454 325.956 44.7335C325.956 42.3988 325.362 40.9604 323.319 40.9604C321.693 40.9604 320.839 42.0027 320.839 43.4411C320.839 45.0358 321.871 45.9009 323.257 45.9009C324.07 45.9009 324.82 45.5361 325.123 44.9003C325.154 47.1099 324.56 47.8604 323.455 47.8604C322.579 47.8604 322.079 47.4018 321.944 46.62H321.068ZM323.413 45.0983C322.288 45.0983 321.746 44.3895 321.746 43.4202C321.746 42.4196 322.361 41.7526 323.34 41.7526C324.424 41.7526 325.008 42.4717 325.008 43.4932C325.008 44.5042 324.32 45.0983 323.413 45.0983Z" fill="#676E80"/>
<path d="M335.708 48.6421H336.667V41.1063H334.707V41.9714H335.708V48.6421ZM338.296 44.796C338.296 46.9848 338.838 48.6421 340.922 48.6421C342.997 48.6421 343.539 46.9848 343.539 44.796C343.539 42.6385 342.997 40.9917 340.922 40.9917C338.838 40.9917 338.296 42.6385 338.296 44.796ZM342.6 44.796C342.6 46.422 342.402 47.777 340.922 47.777C339.432 47.777 339.234 46.422 339.234 44.796C339.234 43.2326 339.432 41.8568 340.922 41.8568C342.402 41.8568 342.6 43.2326 342.6 44.796Z" fill="#676E80"/>
<path d="M355.833 48.6421H356.792V41.1063H354.832V41.9714H355.833V48.6421ZM359.172 48.6421H360.13V41.1063H358.171V41.9714H359.172V48.6421Z" fill="#676E80"/>
<path d="M373.347 48.6421H374.306V41.1063H372.347V41.9714H373.347V48.6421ZM375.821 48.5587H380.834V47.7666H377.249C378.593 46.6722 380.615 45.0775 380.615 43.2013C380.615 41.8047 379.698 40.9708 378.28 40.9708C376.925 40.9708 375.914 41.8047 375.852 43.4098H376.769C376.811 42.4613 377.311 41.7838 378.291 41.7838C379.312 41.7838 379.677 42.4092 379.677 43.243C379.677 44.7856 377.801 46.2865 375.821 47.8812V48.5587Z" fill="#676E80"/>
<path d="M392.118 48.6421H393.077V41.1063H391.117V41.9714H392.118V48.6421ZM394.685 43.0033H395.613C395.706 42.2737 396.238 41.7734 397.124 41.7734C398.031 41.7734 398.51 42.2737 398.51 42.9929C398.51 43.8684 397.833 44.254 396.571 44.2645H396.321V45.0566H396.561C397.916 45.0566 398.656 45.4631 398.656 46.5262C398.656 47.2975 398.177 47.8916 397.166 47.8916C396.165 47.8916 395.581 47.2767 395.488 46.4741H394.57C394.685 47.9333 395.748 48.6942 397.176 48.6942C398.75 48.6942 399.563 47.777 399.563 46.6096C399.563 45.5256 398.969 44.8794 398.093 44.671V44.6188C398.885 44.4417 399.427 43.7642 399.427 42.8991C399.427 41.8151 398.625 40.9604 397.155 40.9604C395.758 40.9604 394.779 41.7109 394.685 43.0033Z" fill="#676E80"/>
<path d="M411.076 48.6421H412.035V41.1063H410.075V41.9714H411.076V48.6421ZM417.291 48.6421H418.229V46.964H419.271V46.1406H418.229V41.1793H417.093L413.434 46.2448V46.964H417.291V48.6421ZM414.529 46.1406L417.333 42.1695V46.1406H414.529Z" fill="#676E80"/>
<path d="M429.272 48.6421H430.231V41.1063H428.272V41.9714H429.272V48.6421ZM432.131 41.0959V45.3485H433.028C433.278 44.7543 433.83 44.3583 434.591 44.3583C435.685 44.3583 436.238 44.9837 436.238 46.0572C436.238 47.0891 435.727 47.8604 434.581 47.8604C433.695 47.8604 433.08 47.3913 432.903 46.5992H431.975C432.163 47.8187 433.069 48.6629 434.57 48.6629C436.332 48.6629 437.145 47.4956 437.145 46.0364C437.145 44.869 436.561 43.5453 434.727 43.5453C433.987 43.5453 433.319 43.8788 433.007 44.3062V41.9297H436.665V41.0959H432.131Z" fill="#676E80"/>
<path d="M448.08 48.6421H449.039V41.1063H447.08V41.9714H448.08V48.6421ZM455.744 42.8991C455.619 41.8464 454.89 40.95 453.451 40.95C451.544 40.95 450.783 42.4092 450.783 44.7752C450.783 47.0578 451.315 48.6629 453.545 48.6629C455.192 48.6629 456.005 47.5373 456.005 46.1614C456.005 44.5772 455.056 43.6495 453.649 43.6495C452.753 43.6495 451.93 44.0664 451.606 44.8065C451.596 42.5655 452.242 41.7421 453.441 41.7421C454.296 41.7421 454.723 42.1695 454.869 42.8991H455.744ZM453.451 44.4521C454.535 44.4521 455.088 45.1296 455.088 46.1927C455.088 47.2142 454.473 47.8708 453.493 47.8708C452.305 47.8708 451.721 47.0891 451.721 46.0885C451.721 44.9628 452.586 44.4521 453.451 44.4521Z" fill="#676E80"/>
<path d="M467.388 48.6421H468.347V41.1063H466.387V41.9714H467.388V48.6421ZM469.674 41.1272V41.9402H473.697L470.758 48.6421H471.717L474.614 41.8464V41.1272H469.674Z" fill="#676E80"/>
<path d="M484.487 48.6421H485.446V41.1063H483.487V41.9714H484.487V48.6421ZM488.451 44.7231C487.607 44.9732 487.055 45.6611 487.055 46.6096C487.055 47.975 488.128 48.8505 489.712 48.8505C491.307 48.8505 492.391 47.975 492.391 46.6096C492.391 45.6716 491.839 44.9837 490.984 44.7231C491.724 44.4312 492.193 43.8059 492.193 42.9929C492.193 41.8985 491.349 40.9917 489.712 40.9917C488.076 40.9917 487.242 41.888 487.242 42.9929C487.242 43.8371 487.68 44.4208 488.451 44.7231ZM489.712 44.4104C488.795 44.4104 488.159 43.8997 488.159 43.118C488.159 42.232 488.785 41.7838 489.712 41.7838C490.661 41.7838 491.276 42.2424 491.276 43.1075C491.276 43.8892 490.64 44.4104 489.712 44.4104ZM489.712 45.14C490.703 45.14 491.453 45.609 491.453 46.5784C491.453 47.4539 490.786 48.0584 489.712 48.0584C488.639 48.0584 487.961 47.4643 487.961 46.5784C487.961 45.5778 488.743 45.14 489.712 45.14Z" fill="#676E80"/>
<path d="M504.635 48.6421H505.594V41.1063H503.634V41.9714H504.635V48.6421ZM507.567 46.62C507.671 47.7249 508.401 48.6525 509.902 48.6525C511.882 48.6525 512.455 47.2454 512.455 44.7335C512.455 42.3988 511.861 40.9604 509.818 40.9604C508.192 40.9604 507.338 42.0027 507.338 43.4411C507.338 45.0358 508.37 45.9009 509.756 45.9009C510.569 45.9009 511.319 45.5361 511.622 44.9003C511.653 47.1099 511.059 47.8604 509.954 47.8604C509.078 47.8604 508.578 47.4018 508.443 46.62H507.567ZM509.912 45.0983C508.787 45.0983 508.245 44.3895 508.245 43.4202C508.245 42.4196 508.86 41.7526 509.839 41.7526C510.923 41.7526 511.507 42.4717 511.507 43.4932C511.507 44.5042 510.819 45.0983 509.912 45.0983Z" fill="#676E80"/>
<path d="M521.294 48.5587H526.308V47.7666H522.722C524.067 46.6722 526.089 45.0775 526.089 43.2013C526.089 41.8047 525.172 40.9708 523.754 40.9708C522.399 40.9708 521.388 41.8047 521.326 43.4098H522.243C522.284 42.4613 522.785 41.7838 523.765 41.7838C524.786 41.7838 525.151 42.4092 525.151 43.243C525.151 44.7856 523.275 46.2865 521.294 47.8812V48.5587ZM527.404 44.796C527.404 46.9848 527.946 48.6421 530.031 48.6421C532.105 48.6421 532.647 46.9848 532.647 44.796C532.647 42.6385 532.105 40.9917 530.031 40.9917C527.946 40.9917 527.404 42.6385 527.404 44.796ZM531.709 44.796C531.709 46.422 531.511 47.777 530.031 47.777C528.54 47.777 528.342 46.422 528.342 44.796C528.342 43.2326 528.54 41.8568 530.031 41.8568C531.511 41.8568 531.709 43.2326 531.709 44.796Z" fill="#676E80"/>
<path d="M540.767 48.5587H545.781V47.7666H542.195C543.54 46.6722 545.562 45.0775 545.562 43.2013C545.562 41.8047 544.644 40.9708 543.227 40.9708C541.872 40.9708 540.861 41.8047 540.798 43.4098H541.716C541.757 42.4613 542.258 41.7838 543.237 41.7838C544.259 41.7838 544.624 42.4092 544.624 43.243C544.624 44.7856 542.748 46.2865 540.767 47.8812V48.5587ZM547.627 48.6421H548.586V41.1063H546.627V41.9714H547.627V48.6421Z" fill="#676E80"/>
<path d="M558.283 48.5587H563.297V47.7666H559.711C561.056 46.6722 563.078 45.0775 563.078 43.2013C563.078 41.8047 562.161 40.9708 560.743 40.9708C559.388 40.9708 558.377 41.8047 558.315 43.4098H559.232C559.273 42.4613 559.774 41.7838 560.754 41.7838C561.775 41.7838 562.14 42.4092 562.14 43.243C562.14 44.7856 560.264 46.2865 558.283 47.8812V48.5587ZM564.278 48.5587H569.292V47.7666H565.706C567.051 46.6722 569.073 45.0775 569.073 43.2013C569.073 41.8047 568.156 40.9708 566.738 40.9708C565.383 40.9708 564.372 41.8047 564.31 43.4098H565.227C565.269 42.4613 565.769 41.7838 566.749 41.7838C567.77 41.7838 568.135 42.4092 568.135 43.243C568.135 44.7856 566.259 46.2865 564.278 47.8812V48.5587Z" fill="#676E80"/>
<path d="M577.054 48.5587H582.067V47.7666H578.482C579.826 46.6722 581.848 45.0775 581.848 43.2013C581.848 41.8047 580.931 40.9708 579.514 40.9708C578.159 40.9708 577.148 41.8047 577.085 43.4098H578.002C578.044 42.4613 578.544 41.7838 579.524 41.7838C580.546 41.7838 580.91 42.4092 580.91 43.243C580.91 44.7856 579.034 46.2865 577.054 47.8812V48.5587ZM583.143 43.0033H584.07C584.164 42.2737 584.696 41.7734 585.582 41.7734C586.489 41.7734 586.968 42.2737 586.968 42.9929C586.968 43.8684 586.291 44.254 585.029 44.2645H584.779V45.0566H585.019C586.374 45.0566 587.114 45.4631 587.114 46.5262C587.114 47.2975 586.635 47.8916 585.623 47.8916C584.623 47.8916 584.039 47.2767 583.945 46.4741H583.028C583.143 47.9333 584.206 48.6942 585.634 48.6942C587.208 48.6942 588.021 47.777 588.021 46.6096C588.021 45.5256 587.427 44.8794 586.551 44.671V44.6188C587.343 44.4417 587.885 43.7642 587.885 42.8991C587.885 41.8151 587.083 40.9604 585.613 40.9604C584.216 40.9604 583.237 41.7109 583.143 43.0033Z" fill="#676E80"/>
</g>
<rect x="265" y="347" width="59.1749" height="34.3336" rx="5.16672" fill="#00C97A"/>
<path d="M286.125 372.604C284.838 372.604 283.681 372.322 282.652 371.76C281.623 371.181 280.811 370.369 280.217 369.324C279.638 368.279 279.348 367.073 279.348 365.707C279.348 364.34 279.646 363.135 280.241 362.09C280.852 361.045 281.679 360.241 282.724 359.678C283.769 359.1 284.935 358.81 286.221 358.81C287.507 358.81 288.673 359.1 289.718 359.678C290.763 360.241 291.582 361.045 292.177 362.09C292.788 363.135 293.094 364.34 293.094 365.707C293.094 367.073 292.78 368.279 292.153 369.324C291.542 370.369 290.706 371.181 289.645 371.76C288.6 372.322 287.427 372.604 286.125 372.604ZM286.125 369.662C286.735 369.662 287.306 369.517 287.837 369.228C288.383 368.922 288.817 368.472 289.139 367.877C289.46 367.282 289.621 366.559 289.621 365.707C289.621 364.437 289.284 363.464 288.608 362.789C287.949 362.098 287.137 361.752 286.173 361.752C285.208 361.752 284.396 362.098 283.737 362.789C283.094 363.464 282.773 364.437 282.773 365.707C282.773 366.977 283.086 367.958 283.713 368.649C284.356 369.324 285.16 369.662 286.125 369.662ZM302.973 358.834C304.565 358.834 305.851 359.341 306.831 360.354C307.812 361.35 308.302 362.749 308.302 364.549V372.387H304.926V365.008C304.926 363.947 304.661 363.135 304.131 362.572C303.6 361.993 302.877 361.704 301.96 361.704C301.028 361.704 300.288 361.993 299.742 362.572C299.211 363.135 298.946 363.947 298.946 365.008V372.387H295.57V359.027H298.946V360.691C299.396 360.112 299.967 359.662 300.658 359.341C301.365 359.003 302.137 358.834 302.973 358.834Z" fill="white"/>
<rect x="338" y="347" width="59.2704" height="34.3336" rx="5.16672" fill="#FBAFAF"/>
<path d="M365.799 365.708C365.799 361.488 362.785 358.811 358.927 358.811C355.068 358.811 352.054 361.488 352.054 365.708C352.054 369.903 354.972 372.604 358.83 372.604C362.713 372.604 365.799 369.903 365.799 365.708ZM355.478 365.708C355.478 363.031 357.094 361.753 358.878 361.753C360.663 361.753 362.327 363.031 362.327 365.708C362.327 368.36 360.615 369.662 358.83 369.662C357.022 369.662 355.478 368.36 355.478 365.708ZM368.637 372.387H372.062V361.801H374.401V359.028H372.062V358.473C372.062 356.978 372.616 356.448 374.256 356.496V353.65C370.494 353.554 368.637 355.073 368.637 358.353V359.028H367.118V361.801H368.637V372.387ZM376.95 372.387H380.374V361.801H382.714V359.028H380.374V358.473C380.374 356.978 380.929 356.448 382.569 356.496V353.65C378.807 353.554 376.95 355.073 376.95 358.353V359.028H375.431V361.801H376.95V372.387Z" fill="white"/>
<defs>
<filter id="filter0_d" x="17.9104" y="0.220314" width="626.497" height="366.27" filterUnits="userSpaceOnUse" color-interpolation-filters="sRGB">
<feFlood flood-opacity="0" result="BackgroundImageFix"/>
<feColorMatrix in="SourceAlpha" type="matrix" values="0 0 0 0 0 0 0 0 0 0 0 0 0 0 0 0 0 0 127 0" result="hardAlpha"/>
<feOffset dy="2.60227"/>
<feGaussianBlur stdDeviation="13.0114"/>
<feColorMatrix type="matrix" values="0 0 0 0 0 0 0 0 0 0 0 0 0 0 0 0 0 0 0.03 0"/>
<feBlend mode="normal" in2="BackgroundImageFix" result="effect1_dropShadow"/>
<feBlend mode="normal" in="SourceGraphic" in2="effect1_dropShadow" result="shape"/>
</filter>
<filter id="filter1_d" x="14.9447" y="-1.807" width="632.115" height="368.115" filterUnits="userSpaceOnUse" color-interpolation-filters="sRGB">
<feFlood flood-opacity="0" result="BackgroundImageFix"/>
<feColorMatrix in="SourceAlpha" type="matrix" values="0 0 0 0 0 0 0 0 0 0 0 0 0 0 0 0 0 0 127 0" result="hardAlpha"/>
<feOffset dy="2.60573"/>
<feGaussianBlur stdDeviation="13.0286"/>
<feColorMatrix type="matrix" values="0 0 0 0 0 0 0 0 0 0 0 0 0 0 0 0 0 0 0.03 0"/>
<feBlend mode="normal" in2="BackgroundImageFix" result="effect1_dropShadow"/>
<feBlend mode="normal" in="SourceGraphic" in2="effect1_dropShadow" result="shape"/>
</filter>
<clipPath id="clip0">
<rect width="600" height="352" fill="white" transform="translate(31.002 12.6445)"/>
</clipPath>
</defs>
</svg>
